<svg xmlns="http://www.w3.org/2000/svg" width="960" height="420" viewBox="0 0 960 420" role="img" aria-labelledby="curveTitle curveDesc">
  <title id="curveTitle">Q-learning training curve</title>
  <desc id="curveDesc">Episode score trend across 500 training episodes.</desc>
  <rect width="960" height="420" rx="24" fill="#fff7ec" />
  <rect x="16" y="16" width="928" height="388" rx="20" fill="#f8fbf4" stroke="rgba(26,82,54,0.09)" />
  <text x="68" y="44" font-size="22" font-family="Trebuchet MS, Segoe UI, sans-serif" font-weight="700" fill="#173626">AI Learning Curve</text>
  <text x="68" y="66" font-size="13" font-family="Trebuchet MS, Segoe UI, sans-serif" fill="#567062">500 episodes using the live GreenLogic simulation backend</text>
  <line x1="68" y1="368.00" x2="936" y2="368.00" stroke="rgba(20,60,40,0.14)" stroke-width="1" /><text x="58" y="372.00" text-anchor="end" font-size="12" fill="#4d6357">-412</text><line x1="68" y1="284.00" x2="936" y2="284.00" stroke="rgba(20,60,40,0.14)" stroke-width="1" /><text x="58" y="288.00" text-anchor="end" font-size="12" fill="#4d6357">-208</text><line x1="68" y1="200.00" x2="936" y2="200.00" stroke="rgba(20,60,40,0.14)" stroke-width="1" /><text x="58" y="204.00" text-anchor="end" font-size="12" fill="#4d6357">-4</text><line x1="68" y1="116.00" x2="936" y2="116.00" stroke="rgba(20,60,40,0.14)" stroke-width="1" /><text x="58" y="120.00" text-anchor="end" font-size="12" fill="#4d6357">200</text><line x1="68" y1="32.00" x2="936" y2="32.00" stroke="rgba(20,60,40,0.14)" stroke-width="1" /><text x="58" y="36.00" text-anchor="end" font-size="12" fill="#4d6357">404</text>
  <line x1="68" y1="368" x2="936" y2="368" stroke="#67806d" stroke-width="1.2" />
  <line x1="68" y1="32" x2="68" y2="368" stroke="#67806d" stroke-width="1.2" />
  <line x1="68.00" y1="368" x2="68.00" y2="376" stroke="#67806d" stroke-width="1" /><text x="68.00" y="392" text-anchor="middle" font-size="12" fill="#4d6357">1</text><line x1="283.70" y1="368" x2="283.70" y2="376" stroke="#67806d" stroke-width="1" /><text x="283.70" y="392" text-anchor="middle" font-size="12" fill="#4d6357">125</text><line x1="501.13" y1="368" x2="501.13" y2="376" stroke="#67806d" stroke-width="1" /><text x="501.13" y="392" text-anchor="middle" font-size="12" fill="#4d6357">250</text><line x1="718.57" y1="368" x2="718.57" y2="376" stroke="#67806d" stroke-width="1" /><text x="718.57" y="392" text-anchor="middle" font-size="12" fill="#4d6357">375</text><line x1="936.00" y1="368" x2="936.00" y2="376" stroke="#67806d" stroke-width="1" /><text x="936.00" y="392" text-anchor="middle" font-size="12" fill="#4d6357">500</text>
  <polyline points="68.00,314.47 69.74,326.41 71.48,160.47 73.22,274.53 74.96,139.47 76.70,274.94 78.44,231.29 80.18,205.35 81.92,226.35 83.66,186.82 85.39,281.53 87.13,254.76 88.87,223.06 90.61,183.94 92.35,179.00 94.09,292.65 95.83,281.94 97.57,368.00 99.31,249.41 101.05,268.76 102.79,208.65 104.53,189.29 106.27,201.24 108.01,211.12 109.75,211.53 111.49,251.06 113.23,216.88 114.97,140.71 116.71,244.88 118.44,206.18 120.18,163.76 121.92,166.65 123.66,236.65 125.40,115.18 127.14,116.00 128.88,145.24 130.62,332.18 132.36,265.88 134.10,179.00 135.84,149.76 137.58,293.88 139.32,310.76 141.06,230.47 142.80,257.65 144.54,191.76 146.28,196.71 148.02,131.24 149.76,138.65 151.49,163.35 153.23,78.53 154.97,180.24 156.71,197.53 158.45,77.29 160.19,114.35 161.93,126.29 163.67,90.06 165.41,183.12 167.15,123.00 168.89,169.53 170.63,186.00 172.37,191.35 174.11,159.65 175.85,92.94 177.59,96.65 179.33,100.35 181.07,108.18 182.81,67.82 184.55,136.18 186.28,112.29 188.02,113.12 189.76,144.82 191.50,87.59 193.24,102.82 194.98,125.88 196.72,88.00 198.46,101.18 200.20,128.76 201.94,162.53 203.68,118.47 205.42,203.29 207.16,89.24 208.90,71.53 210.64,211.53 212.38,168.71 214.12,117.24 215.86,168.71 217.60,82.24 219.33,260.53 221.07,172.00 222.81,125.06 224.55,80.59 226.29,160.47 228.03,102.82 229.77,163.35 231.51,88.82 233.25,68.24 234.99,124.24 236.73,81.82 238.47,204.12 240.21,92.94 241.95,76.06 243.69,97.88 245.43,190.94 247.17,58.76 248.91,73.59 250.65,136.59 252.38,66.59 254.12,83.88 255.86,87.18 257.60,96.65 259.34,102.00 261.08,266.71 262.82,56.29 264.56,74.00 266.30,139.47 268.04,51.35 269.78,102.82 271.52,108.18 273.26,79.35 275.00,46.82 276.74,85.53 278.48,191.35 280.22,67.00 281.96,134.12 283.70,96.65 285.43,70.71 287.17,80.18 288.91,57.12 290.65,106.94 292.39,66.18 294.13,75.65 295.87,199.59 297.61,63.29 299.35,59.59 301.09,57.12 302.83,81.41 304.57,59.59 306.31,106.94 308.05,112.71 309.79,45.59 311.53,150.18 313.27,183.53 315.01,72.76 316.75,62.88 318.48,101.18 320.22,62.06 321.96,76.47 323.70,105.29 325.44,177.76 327.18,54.65 328.92,82.24 330.66,169.53 332.40,73.59 334.14,66.59 335.88,64.94 337.62,56.71 339.36,64.94 341.10,58.76 342.84,55.47 344.58,72.76 346.32,91.29 348.06,61.65 349.80,73.59 351.54,58.76 353.27,55.06 355.01,79.76 356.75,71.12 358.49,37.35 360.23,60.00 361.97,74.41 363.71,65.35 365.45,143.59 367.19,59.18 368.93,58.35 370.67,63.71 372.41,80.59 374.15,67.82 375.89,78.53 377.63,65.35 379.37,55.47 381.11,52.59 382.85,62.06 384.59,52.18 386.32,129.18 388.06,101.59 389.80,103.65 391.54,56.71 393.28,46.82 395.02,41.06 396.76,65.35 398.50,71.94 400.24,55.47 401.98,70.71 403.72,48.06 405.46,58.76 407.20,49.29 408.94,47.24 410.68,48.47 412.42,69.47 414.16,52.18 415.90,61.65 417.64,64.53 419.37,67.00 421.11,68.65 422.85,69.06 424.59,56.29 426.33,55.47 428.07,60.82 429.81,45.59 431.55,54.65 433.29,67.82 435.03,36.94 436.77,48.47 438.51,80.59 440.25,62.47 441.99,42.71 443.73,64.12 445.47,39.82 447.21,57.53 448.95,88.00 450.69,61.24 452.42,62.06 454.16,64.53 455.90,109.82 457.64,63.71 459.38,55.06 461.12,47.24 462.86,47.65 464.60,97.47 466.34,57.94 468.08,56.71 469.82,85.53 471.56,47.65 473.30,47.24 475.04,55.06 476.78,71.94 478.52,46.82 480.26,61.65 482.00,46.41 483.74,55.47 485.47,73.18 487.21,43.94 488.95,110.24 490.69,43.53 492.43,42.71 494.17,65.76 495.91,65.35 497.65,64.53 499.39,77.29 501.13,62.88 502.87,47.24 504.61,64.53 506.35,58.35 508.09,34.47 509.83,48.06 511.57,57.53 513.31,53.00 515.05,101.59 516.79,43.94 518.53,43.94 520.26,37.35 522.00,65.35 523.74,43.94 525.48,39.00 527.22,48.88 528.96,36.94 530.70,42.29 532.44,78.53 534.18,74.00 535.92,42.29 537.66,56.71 539.40,56.71 541.14,51.76 542.88,64.94 544.62,66.18 546.36,55.06 548.10,55.47 549.84,39.00 551.58,36.94 553.31,50.53 555.05,41.47 556.79,41.06 558.53,48.88 560.27,55.47 562.01,52.59 563.75,50.12 565.49,45.59 567.23,45.59 568.97,65.76 570.71,34.47 572.45,52.18 574.19,63.71 575.93,44.76 577.67,50.94 579.41,47.65 581.15,60.82 582.89,53.82 584.63,48.88 586.36,36.12 588.10,41.06 589.84,48.88 591.58,34.47 593.32,37.76 595.06,52.18 596.80,42.29 598.54,37.76 600.28,46.82 602.02,50.12 603.76,48.88 605.50,58.76 607.24,42.29 608.98,37.76 610.72,49.71 612.46,53.41 614.20,37.76 615.94,52.18 617.68,34.47 619.41,53.00 621.15,44.35 622.89,34.47 624.63,44.76 626.37,62.88 628.11,49.29 629.85,53.82 631.59,52.59 633.33,34.47 635.07,38.59 636.81,50.53 638.55,38.59 640.29,47.65 642.03,55.06 643.77,37.76 645.51,47.24 647.25,76.06 648.99,40.24 650.73,51.35 652.46,56.71 654.20,34.88 655.94,37.76 657.68,55.06 659.42,48.47 661.16,36.94 662.90,48.88 664.64,53.82 666.38,43.94 668.12,50.94 669.86,39.00 671.60,43.94 673.34,57.94 675.08,43.53 676.82,36.94 678.56,63.71 680.30,46.82 682.04,51.76 683.78,56.71 685.52,34.47 687.25,50.94 688.99,60.00 690.73,36.94 692.47,46.00 694.21,65.35 695.95,49.29 697.69,36.94 699.43,145.65 701.17,36.94 702.91,46.82 704.65,59.18 706.39,42.29 708.13,43.94 709.87,52.18 711.61,34.47 713.35,36.94 715.09,52.18 716.83,34.47 718.57,36.94 720.30,60.41 722.04,34.47 723.78,43.12 725.52,52.18 727.26,42.29 729.00,36.94 730.74,48.88 732.48,34.47 734.22,50.94 735.96,46.41 737.70,34.47 739.44,36.94 741.18,48.88 742.92,46.82 744.66,53.41 746.40,58.35 748.14,34.47 749.88,44.76 751.62,48.88 753.35,36.53 755.09,36.94 756.83,48.88 758.57,40.24 760.31,45.18 762.05,48.88 763.79,36.94 765.53,51.76 767.27,55.06 769.01,35.29 770.75,54.65 772.49,48.88 774.23,41.47 775.97,36.94 777.71,48.88 779.45,46.82 781.19,45.18 782.93,53.00 784.67,49.29 786.40,36.94 788.14,45.59 789.88,43.12 791.62,40.24 793.36,53.41 795.10,34.47 796.84,36.94 798.58,48.88 800.32,34.47 802.06,40.24 803.80,55.06 805.54,41.47 807.28,36.94 809.02,48.88 810.76,36.94 812.50,42.71 814.24,58.35 815.98,42.29 817.72,36.94 819.45,48.88 821.19,34.47 822.93,43.12 824.67,59.18 826.41,34.47 828.15,43.94 829.89,46.41 831.63,43.94 833.37,36.94 835.11,48.88 836.85,43.94 838.59,40.24 840.33,49.71 842.07,42.29 843.81,44.35 845.55,52.18 847.29,36.94 849.03,40.24 850.77,48.88 852.51,35.29 854.24,36.94 855.98,46.82 857.72,39.82 859.46,42.71 861.20,62.88 862.94,62.47 864.68,36.94 866.42,52.18 868.16,37.76 869.90,39.00 871.64,48.88 873.38,62.88 875.12,36.94 876.86,58.35 878.60,51.76 880.34,39.00 882.08,52.59 883.82,32.00 885.56,43.12 887.29,65.35 889.03,34.47 890.77,40.24 892.51,48.88 894.25,35.29 895.99,58.35 897.73,48.88 899.47,39.41 901.21,39.00 902.95,48.88 904.69,36.94 906.43,41.06 908.17,72.35 909.91,35.71 911.65,44.76 913.39,46.41 915.13,44.35 916.87,36.94 918.61,53.41 920.34,34.47 922.08,45.59 923.82,60.41 925.56,44.76 927.30,43.94 929.04,48.88 930.78,41.47 932.52,34.88 934.26,58.76 936.00,34.47" fill="none" stroke="rgba(214,167,76,0.75)" stroke-width="2.2" stroke-linecap="round" stroke-linejoin="round" />
  <polyline points="68.00,360.78 69.74,368.00 71.48,303.48 73.22,305.72 74.96,274.38 76.70,280.81 78.44,277.86 80.18,271.72 81.92,269.77 83.66,263.42 85.39,268.65 87.13,270.31 88.87,268.76 90.61,264.05 92.35,259.57 94.09,264.25 95.83,267.61 97.57,276.38 99.31,276.68 101.05,278.12 102.79,271.72 104.53,263.42 106.27,265.89 108.01,262.05 109.75,266.41 111.49,264.97 113.23,264.10 114.97,260.19 116.71,261.31 118.44,262.48 120.18,255.35 121.92,250.02 123.66,250.84 125.40,246.68 127.14,242.87 128.88,233.95 130.62,236.99 132.36,230.81 134.10,226.56 135.84,219.36 137.58,224.51 139.32,231.86 141.06,233.63 142.80,236.44 144.54,235.25 146.28,231.96 148.02,226.78 149.76,226.65 151.49,221.72 153.23,214.00 154.97,215.00 156.71,216.86 158.45,207.22 160.19,207.17 161.93,207.80 163.67,204.46 165.41,195.44 167.15,186.80 168.89,186.22 170.63,188.42 172.37,182.21 174.11,173.07 175.85,164.75 177.59,155.01 179.33,149.48 181.07,144.12 182.81,140.29 184.55,140.14 186.28,137.05 188.02,139.14 189.76,137.00 191.50,130.35 193.24,131.89 194.98,132.59 196.72,130.27 198.46,130.95 200.20,127.66 201.94,130.05 203.68,126.96 205.42,128.01 207.16,121.83 208.90,116.50 210.64,123.67 212.38,128.03 214.12,129.05 215.86,132.72 217.60,133.59 219.33,141.11 221.07,144.72 222.81,145.44 224.55,141.56 226.29,145.97 228.03,145.97 229.77,148.23 231.51,148.28 233.25,146.29 234.99,146.02 236.73,141.14 238.47,146.32 240.21,139.64 241.95,138.84 243.69,140.44 245.43,139.19 247.17,132.54 248.91,129.90 250.65,127.96 252.38,127.01 254.12,116.32 255.86,111.19 257.60,109.47 259.34,110.77 261.08,117.20 262.82,114.38 264.56,108.98 266.30,112.04 268.04,111.02 269.78,109.72 271.52,111.32 273.26,103.77 275.00,100.98 276.74,101.55 278.48,107.21 280.22,99.71 281.96,104.27 283.70,105.66 285.43,101.68 287.17,102.50 288.91,100.88 290.65,102.07 292.39,100.23 294.13,98.64 295.87,94.58 297.61,95.00 299.35,94.13 301.09,89.15 302.83,90.96 304.57,88.35 306.31,88.27 308.05,90.29 309.79,90.22 311.53,94.13 313.27,93.65 315.01,94.00 316.75,89.69 318.48,89.97 320.22,89.44 321.96,89.22 323.70,92.14 325.44,96.42 327.18,95.72 328.92,96.12 330.66,94.30 332.40,94.93 334.14,95.35 335.88,95.82 337.62,94.33 339.36,94.65 341.10,91.74 342.84,88.27 344.58,89.92 346.32,86.36 348.06,78.98 349.80,79.03 351.54,78.78 353.27,75.99 355.01,77.06 356.75,76.74 358.49,72.63 360.23,65.51 361.97,66.70 363.71,65.68 365.45,64.11 367.19,63.24 368.93,62.74 370.67,62.67 372.41,64.11 374.15,64.28 375.89,65.48 377.63,66.08 379.37,65.03 381.11,62.69 382.85,62.72 384.59,61.42 386.32,65.68 388.06,68.49 389.80,69.94 391.54,69.07 393.28,69.64 395.02,68.49 396.76,67.95 398.50,68.35 400.24,63.01 401.98,63.71 403.72,63.09 405.46,62.79 407.20,60.90 408.94,59.65 410.68,57.83 412.42,58.08 414.16,57.88 415.90,58.43 417.64,58.58 419.37,59.48 421.11,55.81 422.85,53.85 424.59,50.98 426.33,50.91 428.07,51.75 429.81,52.03 431.55,51.38 433.29,51.13 435.03,50.01 436.77,48.67 438.51,50.63 440.25,50.86 441.99,50.46 443.73,51.48 445.47,50.96 447.21,50.23 448.95,52.40 450.69,52.38 452.42,52.23 454.16,52.08 455.90,54.57 457.64,54.25 459.38,54.17 461.12,53.67 462.86,52.88 464.60,56.01 466.34,56.21 468.08,55.54 469.82,58.48 471.56,58.43 473.30,56.41 475.04,55.96 476.78,57.73 478.52,56.69 480.26,58.01 482.00,57.33 483.74,55.37 485.47,56.09 487.21,54.99 488.95,57.76 490.69,53.75 492.43,52.48 494.17,53.12 495.91,54.22 497.65,55.24 499.39,54.02 501.13,54.32 502.87,53.75 504.61,52.48 506.35,53.12 508.09,52.35 509.83,51.93 511.57,51.06 513.31,51.43 515.05,53.85 516.79,53.70 518.53,53.00 520.26,50.83 522.00,52.13 523.74,48.12 525.48,47.84 527.22,48.22 528.96,46.47 530.70,45.08 532.44,45.93 534.18,45.73 535.92,44.48 537.66,45.05 539.40,44.58 541.14,44.18 542.88,46.02 544.62,47.12 546.36,46.97 548.10,47.12 549.84,43.33 551.58,42.91 553.31,43.31 555.05,43.56 556.79,42.09 558.53,42.39 560.27,43.38 562.01,43.61 563.75,44.41 565.49,44.60 567.23,42.61 568.97,42.11 570.71,41.64 572.45,41.37 574.19,41.79 575.93,41.37 577.67,40.52 579.41,39.40 581.15,39.75 582.89,39.65 584.63,40.25 586.36,40.20 588.10,39.62 589.84,40.07 591.58,39.67 593.32,39.00 595.06,38.80 596.80,38.18 598.54,37.43 600.28,37.51 602.02,37.78 603.76,36.76 605.50,38.23 607.24,37.63 608.98,36.06 610.72,36.36 612.46,36.51 614.20,35.91 615.94,35.39 617.68,34.22 619.41,34.47 621.15,34.96 622.89,34.57 624.63,34.32 626.37,36.04 628.11,36.73 629.85,36.83 631.59,37.46 633.33,37.26 635.07,36.76 636.81,36.78 638.55,36.16 640.29,35.49 642.03,36.26 643.77,36.26 645.51,36.11 647.25,37.48 648.99,37.63 650.73,37.58 652.46,38.93 654.20,37.83 655.94,37.43 657.68,38.68 659.42,38.90 661.16,37.33 662.90,37.31 664.64,37.31 666.38,36.78 668.12,37.78 669.86,37.80 671.60,37.41 673.34,38.58 675.08,38.33 676.82,37.23 678.56,38.80 680.30,38.78 682.04,37.31 683.78,38.30 685.52,37.28 687.25,36.93 688.99,38.45 690.73,38.40 692.47,37.85 694.21,38.88 695.95,39.62 697.69,38.90 699.43,44.46 701.17,44.03 702.91,43.78 704.65,45.00 706.39,44.90 708.13,44.06 709.87,44.58 711.61,44.43 713.35,42.81 715.09,43.14 716.83,42.09 718.57,40.89 720.30,42.46 722.04,41.47 723.78,40.44 725.52,41.37 727.26,41.14 729.00,39.42 730.74,39.40 732.48,39.25 734.22,33.52 735.96,34.09 737.70,33.35 739.44,32.00 741.18,32.40 742.92,32.57 744.66,32.65 746.40,34.09 748.14,33.94 749.88,33.49 751.62,34.37 753.35,34.34 755.09,32.92 756.83,33.79 758.57,33.62 760.31,33.20 762.05,33.59 763.79,33.59 765.53,33.77 767.27,35.01 769.01,34.07 770.75,34.57 772.49,35.44 774.23,35.71 775.97,34.99 777.71,35.11 779.45,34.72 781.19,33.92 782.93,35.04 784.67,35.31 786.40,34.59 788.14,35.14 789.88,35.51 791.62,34.99 793.36,35.79 795.10,35.14 796.84,34.42 798.58,35.14 800.32,34.09 802.06,33.20 803.80,34.39 805.54,33.59 807.28,32.87 809.02,33.32 810.76,33.32 812.50,32.95 814.24,33.64 815.98,33.47 817.72,32.50 819.45,32.47 821.19,32.32 822.93,32.17 824.67,33.15 826.41,32.80 828.15,32.22 829.89,32.95 831.63,33.37 833.37,32.65 835.11,33.52 836.85,33.74 838.59,32.85 840.33,33.35 842.07,33.67 843.81,33.40 845.55,34.32 847.29,33.97 849.03,32.87 850.77,33.27 852.51,33.17 854.24,32.45 855.98,33.20 857.72,33.00 859.46,32.00 861.20,33.72 862.94,34.84 864.68,34.27 866.42,34.77 868.16,34.81 869.90,34.22 871.64,34.52 873.38,35.89 875.12,35.11 876.86,36.09 878.60,36.53 880.34,35.74 882.08,36.68 883.82,36.19 885.56,35.84 887.29,37.65 889.03,37.51 890.77,37.11 892.51,37.65 894.25,37.21 895.99,36.93 897.73,36.11 899.47,36.26 901.21,35.46 902.95,36.14 904.69,36.01 906.43,35.54 908.17,36.11 909.91,36.04 911.65,35.21 913.39,34.89 915.13,35.21 916.87,34.27 918.61,35.56 920.34,35.04 922.08,33.84 923.82,35.41 925.56,35.69 927.30,35.39 929.04,36.21 930.78,35.19 932.52,34.34 934.26,35.51 936.00,35.24" fill="none" stroke="#1f6b45" stroke-width="4.2" stroke-linecap="round" stroke-linejoin="round" />
  <rect x="700" y="36" width="14" height="14" rx="7" fill="rgba(214,167,76,0.88)" />
  <text x="722" y="47" font-size="12" font-family="Trebuchet MS, Segoe UI, sans-serif" fill="#4d6357">Episode score</text>
  <rect x="700" y="58" width="14" height="14" rx="7" fill="#1f6b45" />
  <text x="722" y="69" font-size="12" font-family="Trebuchet MS, Segoe UI, sans-serif" fill="#4d6357">20-episode moving average</text>
</svg>
